<?xml version="1.0" encoding="UTF-8"?>
<svg width="400" height="300" viewBox="0 0 400 300" fill="none" xmlns="http://www.w3.org/2000/svg" aria-labelledby="contactIllustrationTitle contactIllustrationDesc" role="img">
  <title id="contactIllustrationTitle">Contact Us Illustration</title>
  <desc id="contactIllustrationDesc">An illustration depicting communication elements like envelopes and connection lines, representing contact methods.</desc>
  
  <!-- Background elements -->
  <rect x="50" y="50" width="300" height="200" rx="12" fill="url(#contactGradient)" opacity="0.1"/>
  
  <!-- Envelope -->
  <g id="envelope">
    <!-- Base -->
    <rect x="100" y="100" width="200" height="120" rx="6" fill="#2A2A2A" opacity="0.8"/>
    
    <!-- Front flap -->
    <path d="M100 110 L200 170 L300 110" stroke="#8a85ff" stroke-width="2" fill="none"/>
    
    <!-- Paper -->
    <rect x="130" y="125" width="140" height="70" rx="4" fill="white" opacity="0.9"/>
    <rect x="140" y="135" width="120" height="5" rx="2" fill="#3A3A3A" opacity="0.6"/>
    <rect x="140" y="145" width="100" height="5" rx="2" fill="#3A3A3A" opacity="0.6"/>
    <rect x="140" y="155" width="110" height="5" rx="2" fill="#3A3A3A" opacity="0.6"/>
    <rect x="140" y="165" width="80" height="5" rx="2" fill="#3A3A3A" opacity="0.6"/>
    <rect x="140" y="175" width="90" height="5" rx="2" fill="#3A3A3A" opacity="0.6"/>
  </g>
  
  <!-- Connection lines -->
  <g id="connection-network" stroke="#8a85ff" stroke-width="1" opacity="0.6">
    <line x1="200" y1="70" x2="200" y2="90" stroke-dasharray="3 3"/>
    <line x1="100" y1="150" x2="80" y2="150" stroke-dasharray="3 3"/>
    <line x1="300" y1="150" x2="320" y2="150" stroke-dasharray="3 3"/>
    <line x1="200" y1="230" x2="200" y2="250" stroke-dasharray="3 3"/>
    
    <line x1="80" y1="150" x2="50" y2="120" stroke-dasharray="3 3"/>
    <line x1="80" y1="150" x2="50" y2="180" stroke-dasharray="3 3"/>
    <line x1="320" y1="150" x2="350" y2="120" stroke-dasharray="3 3"/>
    <line x1="320" y1="150" x2="350" y2="180" stroke-dasharray="3 3"/>
    
    <line x1="200" y1="70" x2="170" y2="40" stroke-dasharray="3 3"/>
    <line x1="200" y1="70" x2="230" y2="40" stroke-dasharray="3 3"/>
    
    <line x1="200" y1="250" x2="170" y2="280" stroke-dasharray="3 3"/>
    <line x1="200" y1="250" x2="230" y2="280" stroke-dasharray="3 3"/>
  </g>
  
  <!-- Connection nodes -->
  <g id="connection-nodes">
    <circle cx="50" cy="120" r="5" fill="#c389c5" opacity="0.8"/>
    <circle cx="50" cy="180" r="5" fill="#8bb8cf" opacity="0.8"/>
    <circle cx="350" cy="120" r="5" fill="#c389c5" opacity="0.8"/>
    <circle cx="350" cy="180" r="5" fill="#8bb8cf" opacity="0.8"/>
    <circle cx="170" cy="40" r="5" fill="#c389c5" opacity="0.8"/>
    <circle cx="230" cy="40" r="5" fill="#8bb8cf" opacity="0.8"/>
    <circle cx="170" cy="280" r="5" fill="#c389c5" opacity="0.8"/>
    <circle cx="230" cy="280" r="5" fill="#8bb8cf" opacity="0.8"/>
    
    <circle cx="200" cy="70" r="6" fill="#8a85ff" opacity="0.9"/>
    <circle cx="80" cy="150" r="6" fill="#8a85ff" opacity="0.9"/>
    <circle cx="320" cy="150" r="6" fill="#8a85ff" opacity="0.9"/>
    <circle cx="200" cy="250" r="6" fill="#8a85ff" opacity="0.9"/>
  </g>
  
  <!-- Animated elements -->
  <g id="animated-elements">
    <!-- Data streams -->
    <circle cx="145" cy="110" r="2" fill="#8a85ff">
      <animate attributeName="cx" values="145;300;300;100;100;145" dur="10s" repeatCount="indefinite"/>
      <animate attributeName="cy" values="110;110;220;220;110;110" dur="10s" repeatCount="indefinite"/>
      <animate attributeName="opacity" values="0;1;1;1;1;0" dur="10s" repeatCount="indefinite"/>
    </circle>
    
    <circle cx="165" cy="110" r="2" fill="#c389c5">
      <animate attributeName="cx" values="165;300;300;100;100;165" dur="12s" repeatCount="indefinite"/>
      <animate attributeName="cy" values="110;110;220;220;110;110" dur="12s" repeatCount="indefinite"/>
      <animate attributeName="opacity" values="0;1;1;1;1;0" dur="12s" repeatCount="indefinite"/>
    </circle>
    
    <circle cx="185" cy="110" r="2" fill="#8bb8cf">
      <animate attributeName="cx" values="185;300;300;100;100;185" dur="8s" repeatCount="indefinite"/>
      <animate attributeName="cy" values="110;110;220;220;110;110" dur="8s" repeatCount="indefinite"/>
      <animate attributeName="opacity" values="0;1;1;1;1;0" dur="8s" repeatCount="indefinite"/>
    </circle>
    
    <!-- Pulsing nodes -->
    <circle cx="200" cy="70" r="6" fill="#8a85ff" opacity="0.5">
      <animate attributeName="r" values="6;8;6" dur="3s" repeatCount="indefinite"/>
      <animate attributeName="opacity" values="0.5;0.8;0.5" dur="3s" repeatCount="indefinite"/>
    </circle>
    
    <circle cx="80" cy="150" r="6" fill="#8a85ff" opacity="0.5">
      <animate attributeName="r" values="6;8;6" dur="4s" repeatCount="indefinite"/>
      <animate attributeName="opacity" values="0.5;0.8;0.5" dur="4s" repeatCount="indefinite"/>
    </circle>
    
    <circle cx="320" cy="150" r="6" fill="#8a85ff" opacity="0.5">
      <animate attributeName="r" values="6;8;6" dur="3.5s" repeatCount="indefinite"/>
      <animate attributeName="opacity" values="0.5;0.8;0.5" dur="3.5s" repeatCount="indefinite"/>
    </circle>
    
    <circle cx="200" cy="250" r="6" fill="#8a85ff" opacity="0.5">
      <animate attributeName="r" values="6;8;6" dur="4.5s" repeatCount="indefinite"/>
      <animate attributeName="opacity" values="0.5;0.8;0.5" dur="4.5s" repeatCount="indefinite"/>
    </circle>
  </g>
  
  <!-- Definitions for gradients -->
  <defs>
    <linearGradient id="contactGradient" x1="0" y1="0" x2="1" y2="1">
      <stop offset="0%" stop-color="#8a85ff" stop-opacity="0.2"/>
      <stop offset="100%" stop-color="#c389c5" stop-opacity="0.2"/>
    </linearGradient>
  </defs>
</svg>