<?xml version="1.0" encoding="UTF-8"?>
<svg width="240" height="240" viewBox="0 0 240 240" fill="none" xmlns="http://www.w3.org/2000/svg">
  <defs>
    <linearGradient id="primary-gradient-dark" x1="20" y1="20" x2="220" y2="220" gradientUnits="userSpaceOnUse">
      <stop offset="0%" stop-color="#8a85ff" />
      <stop offset="100%" stop-color="#8bb8cf" />
    </linearGradient>
  </defs>
  
  <!-- Background Circle -->
  <circle cx="120" cy="120" r="100" fill="rgba(255, 255, 255, 0.1)" />
  
  <!-- Data Connections -->
  <line x1="80" y1="80" x2="150" y2="60" stroke="rgba(255, 255, 255, 0.8)" stroke-width="2.5" />
  <line x1="150" y1="60" x2="190" y2="120" stroke="rgba(255, 255, 255, 0.8)" stroke-width="2.5" />
  <line x1="190" y1="120" x2="160" y2="180" stroke="rgba(255, 255, 255, 0.8)" stroke-width="2.5" />
  <line x1="160" y1="180" x2="90" y2="170" stroke="rgba(255, 255, 255, 0.8)" stroke-width="2.5" />
  <line x1="90" y1="170" x2="50" y2="130" stroke="rgba(255, 255, 255, 0.8)" stroke-width="2.5" />
  <line x1="50" y1="130" x2="80" y2="80" stroke="rgba(255, 255, 255, 0.8)" stroke-width="2.5" />
  <line x1="80" y1="80" x2="160" y2="180" stroke="rgba(255, 255, 255, 0.8)" stroke-width="2" opacity="0.7" />
  <line x1="150" y1="60" x2="90" y2="170" stroke="rgba(255, 255, 255, 0.8)" stroke-width="2" opacity="0.7" />
  
  <!-- Data Points - Small Nodes -->
  <circle cx="80" cy="80" r="10" fill="url(#primary-gradient-dark)" stroke="#ffffff" stroke-width="1.5" />
  <circle cx="150" cy="60" r="10" fill="url(#primary-gradient-dark)" stroke="#ffffff" stroke-width="1.5" />
  <circle cx="190" cy="120" r="10" fill="url(#primary-gradient-dark)" stroke="#ffffff" stroke-width="1.5" />
  <circle cx="160" cy="180" r="10" fill="url(#primary-gradient-dark)" stroke="#ffffff" stroke-width="1.5" />
  <circle cx="90" cy="170" r="10" fill="url(#primary-gradient-dark)" stroke="#ffffff" stroke-width="1.5" />
  <circle cx="50" cy="130" r="10" fill="url(#primary-gradient-dark)" stroke="#ffffff" stroke-width="1.5" />
  
  <!-- Central Node -->
  <circle cx="120" cy="120" r="22" fill="url(#primary-gradient-dark)" stroke="#ffffff" stroke-width="1.5" />
  
  <!-- Checkmark in central node -->
  <path d="M110 120L118 128L132 114" stroke="white" stroke-width="4" stroke-linecap="round" stroke-linejoin="round" />
</svg>