<?xml version="1.0" encoding="UTF-8"?>
<svg width="240" height="240" viewBox="0 0 240 240" fill="none" xmlns="http://www.w3.org/2000/svg">
  <defs>
    <linearGradient id="primary-gradient" x1="20" y1="20" x2="220" y2="220" gradientUnits="userSpaceOnUse">
      <stop offset="0%" stop-color="#5E5DF0" />
      <stop offset="100%" stop-color="#6A67F0" />
    </linearGradient>
  </defs>
  
  <!-- Background Circle -->
  <circle cx="120" cy="120" r="100" fill="rgba(0, 0, 0, 0.05)" />
  
  <!-- Connections from Layer 1 to Layer 2 -->
  <line x1="60" y1="80" x2="120" y2="60" stroke="rgba(0, 0, 0, 0.8)" stroke-width="2.5" />
  <line x1="60" y1="80" x2="120" y2="100" stroke="rgba(0, 0, 0, 0.8)" stroke-width="2.5" />
  <line x1="60" y1="80" x2="120" y2="140" stroke="rgba(0, 0, 0, 0.8)" stroke-width="2.5" />
  <line x1="60" y1="80" x2="120" y2="180" stroke="rgba(0, 0, 0, 0.8)" stroke-width="2" opacity="0.7" />
  
  <line x1="60" y1="120" x2="120" y2="60" stroke="rgba(0, 0, 0, 0.8)" stroke-width="2" opacity="0.7" />
  <line x1="60" y1="120" x2="120" y2="100" stroke="rgba(0, 0, 0, 0.8)" stroke-width="2.5" />
  <line x1="60" y1="120" x2="120" y2="140" stroke="rgba(0, 0, 0, 0.8)" stroke-width="2.5" />
  <line x1="60" y1="120" x2="120" y2="180" stroke="rgba(0, 0, 0, 0.8)" stroke-width="2.5" />
  
  <line x1="60" y1="160" x2="120" y2="60" stroke="rgba(0, 0, 0, 0.8)" stroke-width="2" opacity="0.7" />
  <line x1="60" y1="160" x2="120" y2="100" stroke="rgba(0, 0, 0, 0.8)" stroke-width="2.5" opacity="0.7" />
  <line x1="60" y1="160" x2="120" y2="140" stroke="rgba(0, 0, 0, 0.8)" stroke-width="2.5" />
  <line x1="60" y1="160" x2="120" y2="180" stroke="rgba(0, 0, 0, 0.8)" stroke-width="2.5" />
  
  <!-- Connections from Layer 2 to Layer 3 -->
  <line x1="120" y1="60" x2="180" y2="100" stroke="rgba(0, 0, 0, 0.8)" stroke-width="2.5" />
  <line x1="120" y1="60" x2="180" y2="140" stroke="rgba(0, 0, 0, 0.8)" stroke-width="2" opacity="0.7" />
  
  <line x1="120" y1="100" x2="180" y2="100" stroke="rgba(0, 0, 0, 0.8)" stroke-width="2.5" />
  <line x1="120" y1="100" x2="180" y2="140" stroke="rgba(0, 0, 0, 0.8)" stroke-width="2.5" opacity="0.7" />
  
  <line x1="120" y1="140" x2="180" y2="100" stroke="rgba(0, 0, 0, 0.8)" stroke-width="2.5" opacity="0.7" />
  <line x1="120" y1="140" x2="180" y2="140" stroke="rgba(0, 0, 0, 0.8)" stroke-width="2.5" />
  
  <line x1="120" y1="180" x2="180" y2="100" stroke="rgba(0, 0, 0, 0.8)" stroke-width="2" opacity="0.7" />
  <line x1="120" y1="180" x2="180" y2="140" stroke="rgba(0, 0, 0, 0.8)" stroke-width="2.5" />
  
  <!-- Neural Network Layer 1 (Input) -->
  <circle cx="60" cy="80" r="10" fill="url(#primary-gradient)" stroke="#000000" stroke-width="1.5" />
  <circle cx="60" cy="120" r="10" fill="url(#primary-gradient)" stroke="#000000" stroke-width="1.5" />
  <circle cx="60" cy="160" r="10" fill="url(#primary-gradient)" stroke="#000000" stroke-width="1.5" />
  
  <!-- Neural Network Layer 2 (Hidden) -->
  <circle cx="120" cy="60" r="10" fill="url(#primary-gradient)" stroke="#000000" stroke-width="1.5" />
  <circle cx="120" cy="100" r="10" fill="url(#primary-gradient)" stroke="#000000" stroke-width="1.5" />
  <circle cx="120" cy="140" r="10" fill="url(#primary-gradient)" stroke="#000000" stroke-width="1.5" />
  <circle cx="120" cy="180" r="10" fill="url(#primary-gradient)" stroke="#000000" stroke-width="1.5" />
  
  <!-- Neural Network Layer 3 (Output) -->
  <circle cx="180" cy="100" r="10" fill="url(#primary-gradient)" stroke="#000000" stroke-width="1.5" />
  <circle cx="180" cy="140" r="10" fill="url(#primary-gradient)" stroke="#000000" stroke-width="1.5" />
</svg>