<?xml version="1.0" encoding="UTF-8"?>
<svg width="500" height="400" viewBox="0 0 500 400" fill="none" xmlns="http://www.w3.org/2000/svg"
     aria-labelledby="educationIllustrationTitle educationIllustrationDesc" role="img">
  <title id="educationIllustrationTitle">Education Excellence Illustration</title>
  <desc id="educationIllustrationDesc">An illustration representing education as a journey of knowledge, creativity, and excellence.</desc>
  
  <!-- Background elements -->
  <rect x="40" y="40" width="420" height="320" rx="12" fill="url(#educationGradient)" opacity="0.1"/>
  
  <!-- Central knowledge hub - Core connecting element -->
  <g id="central-hub">
    <circle cx="250" cy="200" r="35" fill="url(#hubGradient)" opacity="0.8"/>
    
    <!-- Knowledge hub structure - open book shape -->
    <path d="M225 200 C225 190, 235 185, 250 185 C265 185, 275 190, 275 200" 
          stroke="white" stroke-width="1.5" fill="none" opacity="0.7"/>
    <path d="M225 200 C225 210, 235 215, 250 215 C265 215, 275 210, 275 200" 
          stroke="white" stroke-width="1.5" fill="none" opacity="0.7"/>
    <line x1="250" y1="185" x2="250" y2="215" stroke="white" stroke-width="1" opacity="0.7"/>
    
    <!-- Book pages detail -->
    <path d="M230 190 L245 190" stroke="white" stroke-width="0.75" opacity="0.5"/>
    <path d="M230 195 L245 195" stroke="white" stroke-width="0.75" opacity="0.5"/>
    <path d="M230 200 L245 200" stroke="white" stroke-width="0.75" opacity="0.5"/>
    <path d="M230 205 L245 205" stroke="white" stroke-width="0.75" opacity="0.5"/>
    <path d="M230 210 L245 210" stroke="white" stroke-width="0.75" opacity="0.5"/>
    
    <path d="M255 190 L270 190" stroke="white" stroke-width="0.75" opacity="0.5"/>
    <path d="M255 195 L270 195" stroke="white" stroke-width="0.75" opacity="0.5"/>
    <path d="M255 200 L270 200" stroke="white" stroke-width="0.75" opacity="0.5"/>
    <path d="M255 205 L270 205" stroke="white" stroke-width="0.75" opacity="0.5"/>
    <path d="M255 210 L270 210" stroke="white" stroke-width="0.75" opacity="0.5"/>
    
    <!-- Connection points on the hub -->
    <circle cx="250" cy="173" r="3" fill="white" opacity="0.8"/>
    <circle cx="250" cy="227" r="3" fill="white" opacity="0.8"/>
    <circle cx="223" cy="200" r="3" fill="white" opacity="0.8"/>
    <circle cx="277" cy="200" r="3" fill="white" opacity="0.8"/>
    
    <!-- Pulsing effect -->
    <circle cx="250" cy="200" r="45" fill="url(#hubGradient)" opacity="0.1">
      <animate attributeName="r" values="45;50;45" dur="3s" repeatCount="indefinite"/>
      <animate attributeName="opacity" values="0.1;0.2;0.1" dur="3s" repeatCount="indefinite"/>
    </circle>
  </g>
  
  <!-- Left Side: Traditional Learning -->
  <g id="traditional-learning">
    <!-- Classic book stack - moved more to the left -->
    <g id="books" transform="translate(-15, 25)">
      <!-- Book 1 (bottom) -->
      <rect x="90" y="235" width="120" height="25" rx="3" fill="#8a85ff" opacity="0.9"/>
      <rect x="90" y="235" width="120" height="6" rx="1" fill="#9e9aff" opacity="0.9"/>
      <rect x="100" y="247" width="60" height="3" rx="1" fill="white" opacity="0.7"/>
      
      <!-- Book 2 -->
      <rect x="100" y="210" width="110" height="25" rx="3" fill="#c389c5" opacity="0.9"/>
      <rect x="100" y="210" width="110" height="6" rx="1" fill="#d9a0db" opacity="0.9"/>
      <rect x="110" y="222" width="50" height="3" rx="1" fill="white" opacity="0.7"/>
      
      <!-- Book 3 -->
      <rect x="110" y="185" width="100" height="25" rx="3" fill="#8bb8cf" opacity="0.9"/>
      <rect x="110" y="185" width="100" height="6" rx="1" fill="#a9d0e3" opacity="0.9"/>
      <rect x="120" y="197" width="45" height="3" rx="1" fill="white" opacity="0.7"/>
      
      <!-- Book 4 (top with excellence mark) -->
      <rect x="120" y="160" width="90" height="25" rx="3" fill="#8a85ff" opacity="0.8"/>
      <rect x="120" y="160" width="90" height="6" rx="1" fill="#9e9aff" opacity="0.9"/>
      <rect x="130" y="172" width="40" height="3" rx="1" fill="white" opacity="0.7"/>
      
      <!-- Excellence symbol -->
      <circle cx="180" cy="172" r="6" fill="#FFD700" opacity="0.9">
        <animate attributeName="opacity" values="0.9;0.7;0.9" dur="3s" repeatCount="indefinite"/>
      </circle>
      <path d="M176 172 L180 168 L184 172 L180 176 Z" fill="white" opacity="0.9"/>
    </g>
    
    <!-- Research notebook - shifted left -->
    <g id="research-notebook" transform="translate(-15, 10)">
      <rect x="90" y="100" width="80" height="100" rx="3" fill="white" opacity="0.9"/>
      <rect x="90" y="100" width="80" height="10" rx="2" fill="#f0f0f0" opacity="0.9"/>
      <line x1="90" y1="110" x2="170" y2="110" stroke="#e0e0e0" stroke-width="1"/>
      
      <!-- Spiral binding -->
      <line x1="90" y1="115" x2="90" y2="195" stroke="#e0e0e0" stroke-width="1"/>
      <line x1="85" y1="115" x2="85" y2="195" stroke="#c389c5" stroke-width="3" stroke-dasharray="2 4"/>
      
      <!-- Note contents -->
      <path d="M100 125 L160 125" stroke="#8a85ff" stroke-width="1" opacity="0.7"/>
      <path d="M100 135 L160 135" stroke="#8a85ff" stroke-width="1" opacity="0.7"/>
      <path d="M100 145 L160 145" stroke="#8a85ff" stroke-width="1" opacity="0.7"/>
      
      <!-- Mathematical equation -->
      <text x="105" y="165" font-family="sans-serif" font-size="7" fill="#8a85ff" opacity="0.9">E = mc²</text>
      
      <!-- Formula sketch -->
      <path d="M105 175 C115 170, 125 180, 135 175" stroke="#8a85ff" stroke-width="1" opacity="0.8" fill="none"/>
      <path d="M140 175 L145 185 L150 175" stroke="#c389c5" stroke-width="1" opacity="0.8" fill="none"/>
    </g>
    
    <!-- Learning metrics and achievements - shifted left-->
    <g id="learning-metrics" transform="translate(-15, 0)">
      <!-- Achievement Card 1 -->
      <rect x="100" y="70" width="45" height="30" rx="6" fill="#1A1A1A" stroke="#8a85ff" stroke-width="1" opacity="0.9"/>
      <text x="122.5" y="85" font-family="sans-serif" font-size="9" fill="#8a85ff" text-anchor="middle">SCIENCE</text>
      <text x="122.5" y="95" font-family="sans-serif" font-size="9" fill="white" text-anchor="middle">A+</text>
      
      <!-- Achievement Card 2 -->
      <rect x="155" y="70" width="45" height="30" rx="6" fill="#1A1A1A" stroke="#c389c5" stroke-width="1" opacity="0.9"/>
      <text x="177.5" y="85" font-family="sans-serif" font-size="9" fill="#c389c5" text-anchor="middle">ARTS</text>
      <text x="177.5" y="95" font-family="sans-serif" font-size="9" fill="white" text-anchor="middle">A</text>
    </g>
  </g>
  
  <!-- Right Side: Digital Learning -->
  <g id="digital-learning">
    <!-- Improved realistic laptop design - shifted right -->
    <g id="laptop" transform="translate(15, 15)">
      <!-- Laptop base - more realistic looking -->
      <path d="M285 260 L415 260 L435 285 L265 285 Z" fill="#2A2A2A" opacity="0.9"/>
      <!-- Laptop base highlight -->
      <path d="M285 260 L415 260 L415 263 L285 263 Z" fill="#3A3A3A" opacity="0.7"/>
      <!-- Touchpad -->
      <rect x="330" y="268" width="40" height="10" rx="1" fill="#333333" opacity="0.7"/>
      
      <!-- Laptop hinge area -->
      <rect x="335" y="245" width="30" height="5" fill="#222222" opacity="0.9"/>
      <rect x="335" y="250" width="30" height="2" fill="#333333" opacity="0.9"/>
      
      <!-- Laptop screen outer frame -->
      <rect x="285" y="180" width="130" height="80" rx="2" fill="#222222" opacity="0.9"/>
      <!-- Laptop screen bezel -->
      <rect x="290" y="185" width="120" height="60" rx="1" fill="#111111"/>
      <!-- Laptop screen -->
      <rect x="295" y="190" width="110" height="50" rx="1" fill="#3A3A3A"/>
      
      <!-- Screen content - learning interface -->
      <rect x="305" y="195" width="40" height="40" rx="2" fill="#8a85ff" opacity="0.3"/>
      <circle cx="325" cy="215" r="12" fill="#8a85ff" opacity="0.6"/>
      <path d="M320 215 L325 220 L330 210" stroke="white" stroke-width="1.5" opacity="0.9" fill="none"/>
      
      <rect x="355" y="195" width="40" height="40" rx="2" fill="#c389c5" opacity="0.3"/>
      <circle cx="375" cy="215" r="12" fill="#c389c5" opacity="0.6"/>
      <text x="375" y="218" font-family="sans-serif" font-size="10" fill="white" opacity="0.9" text-anchor="middle">?</text>
    </g>
    
    <!-- Digital learning dashboard - shifted right -->
    <g id="learning-dashboard" transform="translate(15, 0)">
      <!-- Dashboard panel -->
      <rect x="300" y="110" width="100" height="45" rx="3" fill="#2A2A2A" opacity="0.9"/>
      
      <!-- Dashboard header -->
      <rect x="300" y="110" width="100" height="12" rx="3" fill="#1A1A1A"/>
      <text x="350" y="118.5" font-family="sans-serif" font-size="6" fill="white" opacity="0.9" text-anchor="middle">LEARNING PROGRESS</text>
      
      <!-- Progress bars with properly aligned percentages -->
      <!-- Row 1 -->
      <rect x="310" y="127" width="65" height="4" rx="2" fill="#3A3A3A"/>
      <rect x="310" y="127" width="53" height="4" rx="2" fill="url(#progressGradient1)">
        <animate attributeName="width" values="0;53" dur="2s" begin="0s" fill="freeze"/>
      </rect>
      <text x="380" y="130.5" font-family="sans-serif" font-size="6" fill="white" opacity="0.8">82%</text>
      
      <!-- Row 2 -->
      <rect x="310" y="137" width="65" height="4" rx="2" fill="#3A3A3A"/>
      <rect x="310" y="137" width="57" height="4" rx="2" fill="url(#progressGradient2)">
        <animate attributeName="width" values="0;57" dur="2s" begin="0.3s" fill="freeze"/>
      </rect>
      <text x="380" y="140.5" font-family="sans-serif" font-size="6" fill="white" opacity="0.8">88%</text>
      
      <!-- Row 3 -->
      <rect x="310" y="147" width="65" height="4" rx="2" fill="#3A3A3A"/>
      <rect x="310" y="147" width="49" height="4" rx="2" fill="url(#progressGradient3)">
        <animate attributeName="width" values="0;49" dur="2s" begin="0.6s" fill="freeze"/>
      </rect>
      <text x="380" y="150.5" font-family="sans-serif" font-size="6" fill="white" opacity="0.8">75%</text>
    </g>
    
    <!-- Digital learning metrics - shifted right -->
    <g id="digital-metrics" transform="translate(15, 0)">
      <!-- Digital Learning Card 1 -->
      <rect x="300" y="70" width="45" height="30" rx="6" fill="#1A1A1A" stroke="#8a85ff" stroke-width="1" opacity="0.9"/>
      <text x="322.5" y="85" font-family="sans-serif" font-size="9" fill="#8a85ff" text-anchor="middle">ONLINE</text>
      <text x="322.5" y="95" font-family="sans-serif" font-size="9" fill="white" text-anchor="middle">93%</text>
      
      <!-- Digital Learning Card 2 -->
      <rect x="355" y="70" width="45" height="30" rx="6" fill="#1A1A1A" stroke="#c389c5" stroke-width="1" opacity="0.9"/>
      <text x="377.5" y="85" font-family="sans-serif" font-size="9" fill="#c389c5" text-anchor="middle">SKILLS</text>
      <text x="377.5" y="95" font-family="sans-serif" font-size="9" fill="white" text-anchor="middle">87%</text>
    </g>
  </g>
  
  <!-- Education Elements - moved slightly -->
  <g id="education-elements">
    <!-- Graduation cap - moved more left -->
    <g id="graduation-cap" transform="translate(-15, -5)">
      <rect x="70" y="60" width="25" height="6" rx="1" fill="#8a85ff" opacity="0.9"/>
      <path d="M50 60 L115 60 L82.5 40 Z" fill="#8a85ff" opacity="0.8"/>
      <circle cx="82.5" cy="40" r="3" fill="#FFD700" opacity="0.9"/>
      <path d="M82.5 66 L82.5 80" stroke="#8a85ff" stroke-width="1.5" opacity="0.7"/>
      <circle cx="82.5" cy="80" r="3" fill="#8a85ff" opacity="0.8"/>
      
      <!-- Excellence glow -->
      <circle cx="82.5" cy="40" r="5" fill="#FFD700" opacity="0.3">
        <animate attributeName="r" values="5;7;5" dur="3s" repeatCount="indefinite"/>
        <animate attributeName="opacity" values="0.3;0.1;0.3" dur="3s" repeatCount="indefinite"/>
      </circle>
    </g>
    
    <!-- Creativity paintbrush - moved more right -->
    <g id="creativity-brush" transform="translate(15, -5)">
      <path d="M420 60 C430 50, 435 55, 430 65" stroke="#c389c5" stroke-width="2" fill="none"/>
      <rect x="415" y="65" width="5" height="15" rx="1" fill="#c389c5"/>
      
      <!-- Creative splash -->
      <circle cx="430" cy="50" r="3" fill="#c389c5" opacity="0.6"/>
      <circle cx="425" cy="48" r="2" fill="#c389c5" opacity="0.5"/>
      <circle cx="435" cy="52" r="2" fill="#c389c5" opacity="0.5"/>
      <circle cx="428" cy="45" r="1.5" fill="#c389c5" opacity="0.4"/>
      <circle cx="433" cy="47" r="1.5" fill="#c389c5" opacity="0.4"/>
      
      <!-- Creative inspirational glow -->
      <circle cx="430" cy="50" r="8" fill="url(#creativityGradient)" opacity="0.3">
        <animate attributeName="r" values="8;10;8" dur="4s" repeatCount="indefinite"/>
        <animate attributeName="opacity" values="0.3;0.1;0.3" dur="4s" repeatCount="indefinite"/>
      </circle>
    </g>
  </g>
  
  <!-- Connection elements - adjusted to match new positions -->
  <g id="connections">
    <!-- Main connection lines from the knowledge hub -->
    <path d="M230 175 C200 165, 180 145, 135 150" stroke="#8a85ff" stroke-width="1.5" stroke-dasharray="4 4" fill="none" opacity="0.6">
      <animate attributeName="stroke-dashoffset" values="24;0" dur="6s" repeatCount="indefinite"/>
    </path>
    <path d="M230 225 C200 235, 180 255, 135 250" stroke="#c389c5" stroke-width="1.5" stroke-dasharray="4 4" fill="none" opacity="0.6">
      <animate attributeName="stroke-dashoffset" values="24;0" dur="6s" repeatCount="indefinite"/>
    </path>
    <path d="M270 175 C300 165, 320 145, 365 150" stroke="#8a85ff" stroke-width="1.5" stroke-dasharray="4 4" fill="none" opacity="0.6">
      <animate attributeName="stroke-dashoffset" values="24;0" dur="6s" repeatCount="indefinite"/>
    </path>
    <path d="M270 225 C300 235, 320 255, 365 250" stroke="#c389c5" stroke-width="1.5" stroke-dasharray="4 4" fill="none" opacity="0.6">
      <animate attributeName="stroke-dashoffset" values="24;0" dur="6s" repeatCount="indefinite"/>
    </path>
    
    <!-- Excellence connection - from graduation cap to book - adjusted for shifts -->
    <path d="M67.5 75 C90 95, 110 110, 135 150" stroke="#FFD700" stroke-width="1" stroke-dasharray="3 3" fill="none" opacity="0.6">
      <animate attributeName="stroke-dashoffset" values="18;0" dur="4s" repeatCount="indefinite"/>
    </path>
    
    <!-- Creativity connection - from paintbrush to digital learning - adjusted for shifts -->
    <path d="M435 65 C415 95, 390 115, 365 150" stroke="#c389c5" stroke-width="1" stroke-dasharray="3 3" fill="none" opacity="0.6">
      <animate attributeName="stroke-dashoffset" values="18;0" dur="4s" repeatCount="indefinite"/>
    </path>
    
    <!-- Connection nodes - adjusted positions -->
    <circle cx="135" cy="150" r="4" fill="#8a85ff" opacity="0.8"/>
    <circle cx="135" cy="250" r="4" fill="#c389c5" opacity="0.8"/>
    <circle cx="365" cy="150" r="4" fill="#8a85ff" opacity="0.8"/>
    <circle cx="365" cy="250" r="4" fill="#c389c5" opacity="0.8"/>
  </g>
  
  <!-- Animated elements -->
  <g id="animated-elements">
    <!-- Knowledge flow particles - adjusted for new positions -->
    <circle cx="235" cy="180" r="2.5" fill="#8a85ff" opacity="0.9">
      <animate attributeName="cx" values="235;180;135" dur="4s" repeatCount="indefinite"/>
      <animate attributeName="cy" values="180;160;150" dur="4s" repeatCount="indefinite"/>
      <animate attributeName="opacity" values="0.9;0.6;0" dur="4s" repeatCount="indefinite"/>
    </circle>
    
    <circle cx="235" cy="220" r="2.5" fill="#c389c5" opacity="0.9">
      <animate attributeName="cx" values="235;180;135" dur="5s" repeatCount="indefinite"/>
      <animate attributeName="cy" values="220;240;250" dur="5s" repeatCount="indefinite"/>
      <animate attributeName="opacity" values="0.9;0.6;0" dur="5s" repeatCount="indefinite"/>
    </circle>
    
    <!-- Digital learning flow particles - adjusted -->
    <circle cx="265" cy="180" r="2.5" fill="#8a85ff" opacity="0.9">
      <animate attributeName="cx" values="265;320;365" dur="4s" repeatCount="indefinite"/>
      <animate attributeName="cy" values="180;160;150" dur="4s" repeatCount="indefinite"/>
      <animate attributeName="opacity" values="0.9;0.6;0" dur="4s" repeatCount="indefinite"/>
    </circle>
    
    <circle cx="265" cy="220" r="2.5" fill="#c389c5" opacity="0.9">
      <animate attributeName="cx" values="265;320;365" dur="5s" repeatCount="indefinite"/>
      <animate attributeName="cy" values="220;240;250" dur="5s" repeatCount="indefinite"/>
      <animate attributeName="opacity" values="0.9;0.6;0" dur="5s" repeatCount="indefinite"/>
    </circle>
    
    <!-- Excellence particle flowing from cap to books - adjusted -->
    <circle cx="75" cy="70" r="2" fill="#FFD700" opacity="0.9">
      <animate attributeName="cx" values="75;105;135" dur="4s" repeatCount="indefinite"/>
      <animate attributeName="cy" values="70;110;150" dur="4s" repeatCount="indefinite"/>
      <animate attributeName="opacity" values="0.9;0.6;0" dur="4s" repeatCount="indefinite"/>
    </circle>
    
    <!-- Creativity particle flowing from brush to digital learning - adjusted -->
    <circle cx="435" cy="55" r="2" fill="#c389c5" opacity="0.9">
      <animate attributeName="cx" values="435;400;365" dur="4s" repeatCount="indefinite"/>
      <animate attributeName="cy" values="55;100;150" dur="4s" repeatCount="indefinite"/>
      <animate attributeName="opacity" values="0.9;0.6;0" dur="4s" repeatCount="indefinite"/>
    </circle>
    
    <!-- Ambient particles - spread out more -->
    <circle cx="80" cy="50" r="3" fill="#8a85ff" opacity="0.7">
      <animate attributeName="cy" values="50;44;50" dur="4s" repeatCount="indefinite"/>
      <animate attributeName="opacity" values="0.7;0.9;0.7" dur="4s" repeatCount="indefinite"/>
    </circle>
    
    <circle cx="420" cy="50" r="3" fill="#c389c5" opacity="0.7">
      <animate attributeName="cy" values="50;44;50" dur="3.5s" repeatCount="indefinite"/>
      <animate attributeName="opacity" values="0.7;0.9;0.7" dur="3.5s" repeatCount="indefinite"/>
    </circle>
    
    <circle cx="250" cy="50" r="3" fill="#8bb8cf" opacity="0.7">
      <animate attributeName="cy" values="50;44;50" dur="5s" repeatCount="indefinite"/>
      <animate attributeName="opacity" values="0.7;0.9;0.7" dur="5s" repeatCount="indefinite"/>
    </circle>
    
    <circle cx="250" cy="350" r="3" fill="#8a85ff" opacity="0.7">
      <animate attributeName="cy" values="350;356;350" dur="4s" repeatCount="indefinite"/>
      <animate attributeName="opacity" values="0.7;0.9;0.7" dur="4s" repeatCount="indefinite"/>
    </circle>
    
    <circle cx="80" cy="350" r="3" fill="#c389c5" opacity="0.7">
      <animate attributeName="cy" values="350;356;350" dur="3.5s" repeatCount="indefinite"/>
      <animate attributeName="opacity" values="0.7;0.9;0.7" dur="3.5s" repeatCount="indefinite"/>
    </circle>
    
    <circle cx="420" cy="350" r="3" fill="#8bb8cf" opacity="0.7">
      <animate attributeName="cy" values="350;356;350" dur="5s" repeatCount="indefinite"/>
      <animate attributeName="opacity" values="0.7;0.9;0.7" dur="5s" repeatCount="indefinite"/>
    </circle>
  </g>
  
  <!-- Floating path particles representing the learning journey - adjusted -->
  <g id="learning-journey-particles">
    <circle cx="135" cy="60" r="2.5" fill="#8a85ff" opacity="0.6">
      <animate attributeName="cx" values="135;180;210;240;270;300;330;365" dur="10s" repeatCount="indefinite"/>
      <animate attributeName="cy" values="60;80;100;130;160;190;220;240" dur="10s" repeatCount="indefinite"/>
    </circle>
    
    <circle cx="365" cy="60" r="2.5" fill="#c389c5" opacity="0.6">
      <animate attributeName="cx" values="365;320;290;260;230;200;170;135" dur="12s" repeatCount="indefinite"/>
      <animate attributeName="cy" values="60;80;100;130;160;190;220;240" dur="12s" repeatCount="indefinite"/>
    </circle>
    
    <circle cx="135" cy="300" r="2.5" fill="#8bb8cf" opacity="0.6">
      <animate attributeName="cx" values="135;180;210;240;270;300;330;365" dur="9s" repeatCount="indefinite"/>
      <animate attributeName="cy" values="300;280;260;240;220;200;180;160" dur="9s" repeatCount="indefinite"/>
    </circle>
    
    <circle cx="365" cy="300" r="2.5" fill="#8a85ff" opacity="0.6">
      <animate attributeName="cx" values="365;320;290;260;230;200;170;135" dur="11s" repeatCount="indefinite"/>
      <animate attributeName="cy" values="300;280;260;240;220;200;180;160" dur="11s" repeatCount="indefinite"/>
    </circle>
  </g>
  
  <!-- Definitions for gradients -->
  <defs>
    <linearGradient id="educationGradient" x1="0" y1="0" x2="1" y2="1">
      <stop offset="0%" stop-color="#8a85ff" stop-opacity="0.2"/>
      <stop offset="100%" stop-color="#c389c5" stop-opacity="0.2"/>
    </linearGradient>
    
    <radialGradient id="hubGradient" cx="0.5" cy="0.5" r="0.5" fx="0.5" fy="0.5">
      <stop offset="0%" stop-color="#c389c5"/>
      <stop offset="100%" stop-color="#8a85ff"/>
    </radialGradient>
    
    <linearGradient id="progressGradient1" x1="0" y1="0" x2="1" y2="0">
      <stop offset="0%" stop-color="#8a85ff"/>
      <stop offset="100%" stop-color="#8a85ff" stop-opacity="0.7"/>
    </linearGradient>
    
    <linearGradient id="progressGradient2" x1="0" y1="0" x2="1" y2="0">
      <stop offset="0%" stop-color="#c389c5"/>
      <stop offset="100%" stop-color="#c389c5" stop-opacity="0.7"/>
    </linearGradient>
    
    <linearGradient id="progressGradient3" x1="0" y1="0" x2="1" y2="0">
      <stop offset="0%" stop-color="#8bb8cf"/>
      <stop offset="100%" stop-color="#8bb8cf" stop-opacity="0.7"/>
    </linearGradient>
    
    <radialGradient id="creativityGradient" cx="0.5" cy="0.5" r="0.5" fx="0.5" fy="0.5">
      <stop offset="0%" stop-color="#c389c5"/>
      <stop offset="100%" stop-color="#c389c5" stop-opacity="0"/>
    </radialGradient>
  </defs>
</svg>